<svg xmlns="http://www.w3.org/2000/svg" xmlns:cc="http://web.resource.org/cc/" xmlns:svg="http://www.w3.org/2000/svg" xmlns:xlink="http://www.w3.org/1999/xlink" id="svg2" width="48" height="48" version="1.0"><defs id="defs4"><linearGradient id="linearGradient3235"><stop id="stop3237" offset="0" stop-color="#fce94f" stop-opacity="1"/><stop id="stop3239" offset=".5" stop-color="#fce94f" stop-opacity="1"/><stop id="stop3241" offset=".75" stop-color="#edd400" stop-opacity="1"/><stop id="stop3243" offset="1" stop-color="#c4a000" stop-opacity="1"/></linearGradient><linearGradient id="linearGradient19744"><stop id="stop19746" offset="0" stop-color="#fff" stop-opacity="1"/><stop id="stop19748" offset=".786" stop-color="#edd400" stop-opacity="1"/><stop id="stop19750" offset="1" stop-color="#fff" stop-opacity="1"/></linearGradient><linearGradient id="linearGradient14664"><stop id="stop14666" offset="0" stop-color="#fff" stop-opacity="1"/><stop id="stop14668" offset="1" stop-color="#eeeeec" stop-opacity="1"/></linearGradient><linearGradient id="linearGradient12294"><stop id="stop12296" offset="0" stop-color="#fef8c4" stop-opacity="1"/><stop id="stop12298" offset="1" stop-color="#edd400" stop-opacity="1"/></linearGradient><linearGradient id="linearGradient11853"><stop id="stop11855" offset="0" stop-color="#fff" stop-opacity="1"/><stop id="stop11857" offset="1" stop-color="#fff" stop-opacity="0"/></linearGradient><linearGradient id="linearGradient8285"><stop id="stop8287" offset="0" stop-color="#ff6c6c" stop-opacity="1"/><stop id="stop8289" offset="1" stop-color="#c00" stop-opacity="1"/></linearGradient><linearGradient id="linearGradient7499"><stop id="stop7501" offset="0" stop-color="#fff5ac" stop-opacity="1"/><stop id="stop7503" offset="1" stop-color="#edd400" stop-opacity="1"/></linearGradient><linearGradient id="linearGradient7106"><stop id="stop7108" offset="0" stop-color="#000" stop-opacity="1"/><stop id="stop7110" offset="1" stop-color="#000" stop-opacity="0"/></linearGradient><linearGradient id="linearGradient6328"><stop id="stop6330" offset="0" stop-color="#fff" stop-opacity="1"/><stop id="stop6332" offset="1" stop-color="#fff" stop-opacity="0"/></linearGradient><linearGradient id="linearGradient5539"><stop id="stop5541" offset="0" stop-color="#000" stop-opacity="1"/><stop id="stop5543" offset="1" stop-color="#000" stop-opacity="0"/></linearGradient><linearGradient id="linearGradient3570"><stop id="stop3572" offset="0" stop-color="#fff" stop-opacity="1"/><stop id="stop3574" offset="1" stop-color="#fce94f" stop-opacity="1"/></linearGradient><linearGradient id="linearGradient2790"><stop id="stop2792" offset="0" stop-color="#fff" stop-opacity="1"/><stop id="stop2794" offset="1" stop-color="#fce94f" stop-opacity="1"/></linearGradient><linearGradient id="linearGradient2188"><stop id="stop2190" offset="0" stop-color="#c4a000" stop-opacity="1"/><stop id="stop3626" offset=".206" stop-color="#edd400" stop-opacity="1"/><stop id="stop2848" offset=".5" stop-color="#fce94f" stop-opacity="1"/><stop id="stop2850" offset=".75" stop-color="#edd400" stop-opacity="1"/><stop id="stop2192" offset="1" stop-color="#c4a000" stop-opacity="1"/></linearGradient><radialGradient id="radialGradient3185" cx="23.078" cy="12.744" r="3.5" fx="23.078" fy="12.744" gradientTransform="matrix(1.0996737,-2.6392164,-1.8750005,-1.9999998,19.432184,98.396098)" gradientUnits="userSpaceOnUse" xlink:href="#linearGradient2790"/><linearGradient id="linearGradient4751" x1="21" x2="42.231" y1="37.678" y2="54.18" gradientTransform="matrix(2.2500001,0,0,1.2726172,-31.000001,-8.9499257)" gradientUnits="userSpaceOnUse" xlink:href="#linearGradient12294"/><radialGradient id="radialGradient5545" cx="23.5" cy="19.5" r="14.5" fx="23.5" fy="19.5" gradientTransform="matrix(0.3103448,0,0,0.137931,16.206898,15.310346)" gradientUnits="userSpaceOnUse" xlink:href="#linearGradient5539"/><radialGradient id="radialGradient5934" cx="21.625" cy="16.75" r="5.5" fx="21.625" fy="16.75" gradientTransform="matrix(0.7000001,0,0,-0.7272727,6.5500005,25.181818)" gradientUnits="userSpaceOnUse" xlink:href="#linearGradient7499"/><radialGradient id="radialGradient6717" cx="10.451" cy="27.331" r="7" fx="10.451" fy="27.331" gradientTransform="matrix(2.6249997,2.7443598,-0.4329059,2.1970053,-4.9758584,-64.937913)" gradientUnits="userSpaceOnUse" xlink:href="#linearGradient6328"/><radialGradient id="radialGradient7112" cx="24" cy="38.5" r="6" fx="24" fy="38.5" gradientTransform="matrix(2.9166668,0,0,1.0833331,-46.500002,-0.2083278)" gradientUnits="userSpaceOnUse" xlink:href="#linearGradient7106"/><radialGradient id="radialGradient7116" cx="23.5" cy="19.5" r="14.5" fx="23.5" fy="19.5" gradientTransform="matrix(0.5517241,0,0,0.2413793,11.034483,35.793103)" gradientUnits="userSpaceOnUse" xlink:href="#linearGradient5539"/><radialGradient id="radialGradient11865" cx="23" cy="28.5" r="3" fx="23" fy="28.5" gradientTransform="matrix(0.5999998,0,0,1.1666668,0.2000035,-5.8416827)" gradientUnits="userSpaceOnUse" xlink:href="#linearGradient8285"/><linearGradient id="linearGradient11867" x1="21" x2="25" y1="26" y2="31" gradientTransform="matrix(0.3333332,0,0,0.8333333,6.3333338,4.0749898)" gradientUnits="userSpaceOnUse" xlink:href="#linearGradient11853"/><radialGradient id="radialGradient14259" cx="23" cy="28.5" r="3" fx="23" fy="28.5" gradientTransform="matrix(0.6,0,0,1.1666668,18.199999,-5.7500067)" gradientUnits="userSpaceOnUse" xlink:href="#linearGradient8285"/><linearGradient id="linearGradient14261" x1="21" x2="25" y1="26" y2="31" gradientTransform="matrix(0.3333332,0,0,0.8333333,24.333334,4.1666658)" gradientUnits="userSpaceOnUse" xlink:href="#linearGradient11853"/><linearGradient id="linearGradient17109" x1="12" x2="44.565" y1="14" y2="47.688" gradientTransform="matrix(0.92,0,0,0.8888889,8.9090905e-7,1.6111111)" gradientUnits="userSpaceOnUse" xlink:href="#linearGradient3570"/><radialGradient id="radialGradient17172" cx="23" cy="28.5" r="3" fx="23" fy="28.5" gradientTransform="matrix(0.9999995,0,0,1.5555553,9.5596046e-6,-13.83333)" gradientUnits="userSpaceOnUse" xlink:href="#linearGradient8285"/><linearGradient id="linearGradient17174" x1="21" x2="25" y1="26" y2="31" gradientTransform="matrix(0.5555553,0,0,1.1111107,10.222227,-0.6111033)" gradientUnits="userSpaceOnUse" xlink:href="#linearGradient11853"/><radialGradient id="radialGradient17706" cx="13.071" cy="21.094" r="15.5" fx="13.071" fy="21.094" gradientTransform="matrix(1.4285703,2.2586675,-1.8530096,1.6167349,33.346827,-44.63139)" gradientUnits="userSpaceOnUse" xlink:href="#linearGradient2790"/><radialGradient id="radialGradient18099" cx="3.5" cy="16.969" r="3.048" fx="3.5" fy="16.969" gradientTransform="matrix(0.5290677,1.2697623,-1.3124555,0.7874732,23.91948,-1.0068978)" gradientUnits="userSpaceOnUse" xlink:href="#linearGradient14664"/><radialGradient id="radialGradient18124" cx="3.5" cy="16.969" r="3.048" fx="3.5" fy="16.969" gradientTransform="matrix(0.5290677,1.2697623,-1.3124555,0.7874732,23.91948,-1.0068978)" gradientUnits="userSpaceOnUse" xlink:href="#linearGradient14664"/><radialGradient id="radialGradient18126" cx="3.5" cy="16.969" r="3.048" fx="3.5" fy="16.969" gradientTransform="matrix(0.5290677,1.2697623,-1.3124555,0.7874732,23.91948,-1.0068978)" gradientUnits="userSpaceOnUse" xlink:href="#linearGradient14664"/><radialGradient id="radialGradient18128" cx="3.5" cy="16.969" r="3.048" fx="3.5" fy="16.969" gradientTransform="matrix(0.5290677,1.2697623,-1.3124555,0.7874732,23.91948,-1.0068978)" gradientUnits="userSpaceOnUse" xlink:href="#linearGradient14664"/><linearGradient id="linearGradient19742" x1="40.036" x2="41.661" y1="12.359" y2="35.395" gradientUnits="userSpaceOnUse" xlink:href="#linearGradient19744"/><radialGradient id="radialGradient19774" cx="13.819" cy="8.88" r="14.5" fx="13.819" fy="8.88" gradientTransform="matrix(0.3567181,0.4597701,-0.5655855,0.7289769,16.26512,4.5064085)" gradientUnits="userSpaceOnUse" xlink:href="#linearGradient3570"/><linearGradient id="linearGradient2846" x1="3" x2="39" y1="27" y2="28" gradientUnits="userSpaceOnUse" xlink:href="#linearGradient2188"/><linearGradient id="linearGradient3233" x1="8" x2="38" y1="39" y2="39" gradientUnits="userSpaceOnUse" xlink:href="#linearGradient3235"/></defs><metadata id="metadata7"/><g id="layer1"><path id="path6721" fill="url(#radialGradient7112)" fill-opacity="1" fill-rule="evenodd" stroke="none" stroke-dashoffset="0" stroke-linecap="butt" stroke-linejoin="miter" stroke-miterlimit="4" stroke-opacity="1" stroke-width=".483" marker-end="none" marker-mid="none" marker-start="none" d="M 41.000002,41.499999 C 41.000002,45.087999 33.160001,47.999998 23.500001,47.999998 C 13.84,47.999998 6,45.087999 6,41.499999 C 6,37.912 13.84,35 23.500001,35 C 33.160001,35 41.000002,37.912 41.000002,41.499999 z" color="#000" display="inline" enable-background="accumulate" opacity=".6" overflow="visible" visibility="visible" style="marker:none"/><path id="path3580" fill="url(#linearGradient3233)" fill-opacity="1" fill-rule="evenodd" stroke="#c4a000" stroke-dashoffset="0" stroke-linecap="butt" stroke-linejoin="miter" stroke-miterlimit="4" stroke-opacity="1" stroke-width="1" marker-end="none" marker-mid="none" marker-start="none" d="M 37.499999,40.5 C 37.499999,43.26 31.003999,45.5 22.999999,45.5 C 14.996,45.5 8.4999993,43.26 8.4999993,40.5 C 8.4999993,37.74 14.996,35.5 22.999999,35.5 C 31.003999,35.5 37.499999,37.74 37.499999,40.5 z" color="#000" display="inline" enable-background="accumulate" overflow="visible" visibility="visible" style="marker:none"/><path id="path7114" fill="url(#radialGradient7116)" fill-opacity="1" fill-rule="evenodd" stroke="none" stroke-dashoffset="0" stroke-linecap="butt" stroke-linejoin="miter" stroke-miterlimit="4" stroke-opacity="1" stroke-width="1" marker-end="none" marker-mid="none" marker-start="none" d="M 31.999998,40.5 C 31.999998,42.432 28.415999,44 23.999999,44 C 19.583999,44 16,42.432 16,40.5 C 16,38.568 19.583999,37 23.999999,37 C 28.415999,37 31.999998,38.568 31.999998,40.5 z" color="#000" display="inline" enable-background="accumulate" opacity=".2" overflow="visible" visibility="visible" style="marker:none"/><path id="path4362" fill="none" fill-opacity="1" fill-rule="evenodd" stroke="url(#linearGradient4751)" stroke-dashoffset="0" stroke-linecap="butt" stroke-linejoin="miter" stroke-miterlimit="4" stroke-opacity="1" stroke-width="1" marker-end="none" marker-mid="none" marker-start="none" d="M 36.5,40.045839 C 36.5,42.504536 30.452,44.499998 23.000002,44.499998 C 15.548001,44.499998 9.4999996,42.504536 9.4999996,40.045839 C 9.4999996,37.587142 15.548001,35.591678 23.000002,35.591678 C 30.452,35.591678 36.5,37.587142 36.5,40.045839 z" color="#000" display="inline" enable-background="accumulate" overflow="visible" visibility="visible" style="marker:none"/><path id="path3578" fill="#c4a000" fill-opacity="1" fill-rule="evenodd" stroke="none" stroke-dashoffset="0" stroke-linecap="butt" stroke-linejoin="miter" stroke-miterlimit="4" stroke-opacity="1" stroke-width="1.382" marker-end="none" marker-mid="none" marker-start="none" d="M 30,38.999999 C 30,40.656 26.864,42 23,42 C 19.136,42 16,40.656 16,38.999999 C 16,37.344 19.136,36 23,36 C 26.864,36 30,37.344 30,38.999999 z" color="#000" display="inline" enable-background="accumulate" overflow="visible" visibility="visible" style="marker:none"/><path id="path2196" fill="url(#linearGradient2846)" fill-opacity="1" fill-rule="evenodd" stroke="#c4a000" stroke-dashoffset="0" stroke-linecap="butt" stroke-linejoin="miter" stroke-miterlimit="4" stroke-opacity="1" stroke-width="1" marker-end="none" marker-mid="none" marker-start="none" d="M 22.676304,13.5 C 15.075207,13.5 8.9072718,16.629657 8.9072715,20.493968 C 8.9072715,21.510209 8.7545243,23.67041 9.0187617,26.20205 C 6.530419,25.243195 6.5331578,23.087734 6.3151258,20.525331 L 3.5278724,20.525331 C 3.5200724,20.699921 3.4999999,20.88186 3.4999999,21.058504 C 4.41768,32.304817 13.225346,39.074745 22.676304,39.499999 C 26.476851,39.499999 31.198867,38.468746 34.131915,33.446923 C 37.064967,28.425102 36.445335,22.426121 36.445336,20.493968 C 36.445336,16.629658 30.277398,13.5 22.676304,13.5 z" color="#000" display="inline" enable-background="accumulate" overflow="visible" visibility="visible" style="marker:none"/><path marker-end="none" style="marker:none" id="path3628" fill="#c4a000" fill-opacity="1" fill-rule="evenodd" stroke="#edd400" stroke-dasharray="none" stroke-dashoffset="0" stroke-linecap="butt" stroke-linejoin="miter" stroke-miterlimit="4" stroke-opacity="1" stroke-width=".683" marker-mid="none" marker-start="none" d="M 26,17.5 A 3.5,0.5 0 1 1 19,17.5 A 3.5,0.5 0 1 1 26,17.5 z" color="#000" display="inline" enable-background="accumulate" opacity="1" overflow="visible" transform="matrix(0.7142857,0,0,3.0000004,6.9285725,-34.500007)" visibility="visible"/><path id="path3187" fill="url(#radialGradient19774)" fill-opacity="1" fill-rule="evenodd" stroke="none" stroke-dashoffset="0" stroke-linecap="butt" stroke-linejoin="miter" stroke-miterlimit="4" stroke-opacity="1" stroke-width=".913" marker-end="none" marker-mid="none" marker-start="none" d="M 19,19 C 19,21.760001 30.4,24 23.5,24 C 16.6,24 11,21.760001 11,19 C 11,16.24 16.6,14 23.5,14 C 30.4,14 19,16.24 19,19 z" color="#000" display="inline" enable-background="accumulate" opacity=".6" overflow="visible" visibility="visible" style="marker:none"/><path id="path16339" fill="none" fill-opacity="1" fill-rule="evenodd" stroke="url(#linearGradient17109)" stroke-dasharray="none" stroke-dashoffset="0" stroke-linecap="butt" stroke-linejoin="miter" stroke-miterlimit="4" stroke-opacity="1" stroke-width="1" marker-end="none" marker-mid="none" marker-start="none" d="M 34.499998,18.5 C 34.499998,20.707999 29.348,22.5 23,22.5 C 16.652,22.5 11.499999,20.707999 11.499999,18.5 C 11.499999,16.291999 16.652,14.5 23,14.5 C 29.348,14.5 34.499998,16.291999 34.499998,18.5 z" color="#000" display="inline" enable-background="accumulate" overflow="visible" visibility="visible" style="marker:none"/><path id="path5939" fill="url(#radialGradient6717)" fill-opacity="1" fill-rule="evenodd" stroke="none" stroke-dashoffset="0" stroke-linecap="butt" stroke-linejoin="miter" stroke-miterlimit="4" stroke-opacity="1" stroke-width="1" marker-end="none" marker-mid="none" marker-start="none" d="M 10.625,19 C 10.625,19.915534 9.857988,24.759599 10,27 C 10.071006,28.120201 5.1052705,22.887711 5.9375,22 C 7.8125,20 5,22 5,23 C 5,31.062258 14.519727,36.072058 15.892397,36.913001 C 17.265069,37.753943 18.711279,38 20,38 C 20,38 24,23 24,23 C 19.552193,23 11.76157,21.382369 10.625,19 z" color="#000" display="inline" enable-background="accumulate" opacity=".6" overflow="visible" visibility="visible" style="marker:none"/><path id="path15948" fill="none" fill-opacity="1" fill-rule="evenodd" stroke="#c4a000" stroke-dasharray="none" stroke-dashoffset="0" stroke-linecap="butt" stroke-linejoin="miter" stroke-miterlimit="4" stroke-opacity="1" stroke-width="1" marker-end="none" marker-mid="none" marker-start="none" d="M 35.5,18.978366 C 35.5,21.474308 29.9,23.5 23,23.5 C 16.100002,23.5 10.500001,21.474308 10.500001,18.978366 C 10.500001,16.482423 16.100002,14.456731 23,14.456731 C 29.9,14.456731 35.5,16.482423 35.5,18.978366 z" color="#000" display="inline" enable-background="accumulate" overflow="visible" visibility="visible" style="marker:none"/><path id="path5154" fill="url(#radialGradient5545)" fill-opacity="1" fill-rule="evenodd" stroke="none" stroke-dashoffset="0" stroke-linecap="butt" stroke-linejoin="miter" stroke-miterlimit="4" stroke-opacity="1" stroke-width="1" marker-end="none" marker-mid="none" marker-start="none" d="M 28,18 C 28,19.104 25.984,20 23.5,20 C 21.016001,20 19.000001,19.104 19.000001,18 C 19.000001,16.896001 21.016001,16.000001 23.5,16.000001 C 25.984,16.000001 28,16.896001 28,18 z" color="#000" display="inline" enable-background="accumulate" opacity=".1" overflow="visible" visibility="visible" style="marker:none"/><path id="path2206" fill="none" fill-opacity="1" fill-rule="evenodd" stroke="url(#radialGradient17706)" stroke-dashoffset="0" stroke-linecap="butt" stroke-linejoin="miter" stroke-miterlimit="4" stroke-opacity="1" stroke-width="1" marker-end="none" marker-mid="none" marker-start="none" d="M 22.725993,14.5 C 15.70224,14.5 9.9272588,17.311741 9.9272588,20.879465 C 9.9272588,20.879465 10.107339,27.250001 10.107339,27.250001 C 7.5114915,26.825894 5.9867122,25.093751 5.8490537,21.625 C 4.9536045,21.304239 4.8733891,21.736497 4.4999998,21.906251 C 6.1270478,32.177104 13.954803,38.084585 22.725993,38.500002 C 26.237871,38.500002 30.61543,37.542648 33.325703,32.906252 C 36.035972,28.269858 35.445645,22.75261 35.445644,20.968751 C 35.445644,17.401028 29.749748,14.5 22.725993,14.5 z" color="#000" display="inline" enable-background="accumulate" overflow="visible" visibility="visible" style="marker:none"/><path id="path2201" fill="url(#radialGradient5934)" fill-opacity="1" fill-rule="evenodd" stroke="#c4a000" stroke-dashoffset="0" stroke-linecap="butt" stroke-linejoin="miter" stroke-miterlimit="4" stroke-opacity="1" stroke-width="1" marker-end="none" marker-mid="none" marker-start="none" d="M 26.500001,14.000002 C 26.500001,12.620001 24.931999,11.500002 23.000001,11.500002 C 21.068001,11.500002 19.500002,12.620001 19.500002,14.000002 C 19.500002,15.38 21.068001,18.500002 23.000001,18.500002 C 24.931999,18.500002 26.500001,15.38 26.500001,14.000002 z" color="#000" display="inline" enable-background="accumulate" overflow="visible" visibility="visible" style="marker:none"/><path id="path2204" fill="none" fill-opacity="1" fill-rule="evenodd" stroke="url(#radialGradient3185)" stroke-dashoffset="0" stroke-linecap="butt" stroke-linejoin="miter" stroke-miterlimit="4" stroke-opacity="1" stroke-width="1" marker-end="none" marker-mid="none" marker-start="none" d="M 25.500002,14.285716 C 25.500002,13.300001 24.38,12.500001 23,12.500001 C 21.620003,12.500001 20.500002,13.300001 20.500002,14.285716 C 20.500002,15.271429 21.620003,17.500001 23,17.500001 C 24.38,17.500001 25.500002,15.271429 25.500002,14.285716 z" color="#000" display="inline" enable-background="accumulate" overflow="visible" visibility="visible" style="marker:none"/><path id="path11861" fill="url(#radialGradient11865)" fill-opacity="1" stroke="#a40000" stroke-dashoffset="0" stroke-linecap="round" stroke-linejoin="miter" stroke-miterlimit="4" stroke-opacity="1" stroke-width="1" d="M 13.999999,24.408323 L 12.5,27.408324 L 13.999999,30.408324 L 15.5,27.408324 L 13.999999,24.408323 z"/><path id="path11863" fill="url(#linearGradient11867)" fill-opacity="1" stroke="none" stroke-dashoffset="0" stroke-linecap="round" stroke-linejoin="round" stroke-miterlimit="4" stroke-opacity="1" stroke-width="1" d="M 14,24.908323 L 13,27.408324 L 14,29.908323 L 14,24.908323 z"/><path id="path14255" fill="url(#radialGradient14259)" fill-opacity="1" stroke="#a40000" stroke-dashoffset="0" stroke-linecap="round" stroke-linejoin="miter" stroke-miterlimit="4" stroke-opacity="1" stroke-width="1" d="M 32,24.499999 L 30.5,27.5 L 32,30.5 L 33.500001,27.5 L 32,24.499999 z"/><path id="path14257" fill="url(#linearGradient14261)" fill-opacity="1" stroke="none" stroke-dashoffset="0" stroke-linecap="round" stroke-linejoin="round" stroke-miterlimit="4" stroke-opacity="1" stroke-width="1" d="M 32,24.999999 L 31,27.5 L 32,29.999999 L 32,24.999999 z"/><path id="path17168" fill="url(#radialGradient17172)" fill-opacity="1" stroke="#a40000" stroke-dashoffset="0" stroke-linecap="round" stroke-linejoin="miter" stroke-miterlimit="4" stroke-opacity="1" stroke-width="1" d="M 22.999999,26.500001 L 20.500001,30.5 L 22.999999,34.5 L 25.5,30.5 L 22.999999,26.500001 z"/><path id="path17170" fill="url(#linearGradient17174)" fill-opacity="1" stroke="none" stroke-dashoffset="0" stroke-linecap="round" stroke-linejoin="round" stroke-miterlimit="4" stroke-opacity="1" stroke-width="1" d="M 23.000001,27.166666 L 21.333335,30.500001 L 23.000001,33.833332 L 23.000001,27.166666 z"/><path marker-end="none" style="marker:none" id="path17203" fill="#2e3436" fill-opacity="1" fill-rule="evenodd" stroke="#c4a000" stroke-dasharray="none" stroke-dashoffset="0" stroke-linecap="butt" stroke-linejoin="miter" stroke-miterlimit="4" stroke-opacity="1" stroke-width="1.225" marker-mid="none" marker-start="none" d="M 5,20.5 A 2,1.5 0 1 1 1,20.5 A 2,1.5 0 1 1 5,20.5 z" color="#000" display="inline" enable-background="accumulate" opacity="1" overflow="visible" transform="matrix(1,0,0,0.6666669,1.5,6.8333282)" visibility="visible"/><path marker-end="none" style="marker:none" id="path18109" fill="url(#radialGradient18124)" fill-opacity="1" fill-rule="evenodd" stroke="none" stroke-dasharray="none" stroke-dashoffset="0" stroke-linecap="butt" stroke-linejoin="miter" stroke-miterlimit="4" stroke-opacity="1" stroke-width=".548" marker-mid="none" marker-start="none" d="M 7,18 A 2.5,3 0 1 1 2,18 A 2.5,3 0 1 1 7,18 z" color="#000" display="inline" enable-background="accumulate" opacity="1" overflow="visible" transform="matrix(1.8,0,0,1.5,-1.6,-21.5)" visibility="visible"/><path marker-end="none" style="marker:none" id="path18105" fill="url(#radialGradient18126)" fill-opacity="1" fill-rule="evenodd" stroke="none" stroke-dasharray="none" stroke-dashoffset="0" stroke-linecap="butt" stroke-linejoin="miter" stroke-miterlimit="4" stroke-opacity="1" stroke-width=".685" marker-mid="none" marker-start="none" d="M 7,18 A 2.5,3 0 1 1 2,18 A 2.5,3 0 1 1 7,18 z" color="#000" display="inline" enable-background="accumulate" opacity="1" overflow="visible" transform="matrix(1.4,0,0,1.1666666,-1.8,-10.499998)" visibility="visible"/><path marker-end="none" style="marker:none" id="path18101" fill="url(#radialGradient18128)" fill-opacity="1" fill-rule="evenodd" stroke="none" stroke-dasharray="none" stroke-dashoffset="0" stroke-linecap="butt" stroke-linejoin="miter" stroke-miterlimit="4" stroke-opacity="1" stroke-width=".913" marker-mid="none" marker-start="none" d="M 7,18 A 2.5,3 0 1 1 2,18 A 2.5,3 0 1 1 7,18 z" color="#000" display="inline" enable-background="accumulate" opacity="1" overflow="visible" transform="matrix(1,0,0,0.8333334,1,-0.5000017)" visibility="visible"/><path marker-end="none" style="marker:none" id="path17708" fill="url(#radialGradient18099)" fill-opacity="1" fill-rule="evenodd" stroke="none" stroke-dasharray="none" stroke-dashoffset="0" stroke-linecap="butt" stroke-linejoin="miter" stroke-miterlimit="4" stroke-opacity="1" stroke-width="1.095" marker-mid="none" marker-start="none" d="M 7,18 A 2.5,3 0 1 1 2,18 A 2.5,3 0 1 1 7,18 z" color="#000" display="inline" enable-background="accumulate" opacity="1" overflow="visible" transform="matrix(0.8,0,0,0.6666667,0.4,5.9999992)" visibility="visible"/><path id="path18113" fill="none" fill-opacity="1" fill-rule="evenodd" stroke="#babdb6" stroke-dasharray="none" stroke-dashoffset="0" stroke-linecap="butt" stroke-linejoin="miter" stroke-miterlimit="4" stroke-opacity="1" stroke-width="1" marker-end="none" marker-mid="none" marker-start="none" d="M 6.5 0.5 C 3.74 0.5 1.5 2.74 1.5 5.5 C 1.5 6.2052919 1.6736534 6.8600729 1.9375 7.46875 C 1.0683042 8.2026828 0.5 9.2741795 0.5 10.5 C 0.5 12.003057 1.3357443 13.285297 2.5625 13.96875 C 2.5302393 14.144924 2.5 14.314551 2.5 14.5 C 2.5 14.973227 2.6170765 15.414313 2.8125 15.8125 C 2.033208 16.236011 1.5 17.051249 1.5 18 C 1.5 19.38 2.62 20.5 4 20.5 C 5.38 20.5 6.5 19.38 6.5 18 C 6.5 17.770954 6.4640248 17.554539 6.40625 17.34375 C 7.61269 16.955089 8.5 15.835151 8.5 14.5 C 8.5 13.807159 8.269939 13.164285 7.875 12.65625 C 8.269345 12.036545 8.5 11.288446 8.5 10.5 C 8.5 10.361396 8.4512825 10.228735 8.4375 10.09375 C 10.231875 9.334375 11.5 7.5699998 11.5 5.5 C 11.5 2.7400001 9.2599999 0.49999999 6.5 0.5 z" color="#000" display="inline" enable-background="accumulate" opacity="1" overflow="visible" visibility="visible" style="marker:none"/><path id="path18130" fill="none" fill-opacity="1" fill-rule="evenodd" stroke="#fff" stroke-dasharray="none" stroke-dashoffset="0" stroke-linecap="butt" stroke-linejoin="miter" stroke-miterlimit="4" stroke-opacity="1" stroke-width=".833" marker-end="none" marker-mid="none" marker-start="none" d="M 6.5 1.4375 C 4.2644 1.4375 2.4375001 3.2644 2.4375 5.5 C 2.4375 6.33835 2.7194195 7.1035821 3.15625 7.75 C 2.1380622 8.247806 1.4375 9.2909498 1.4375 10.5 C 1.4375 11.919316 2.4079888 13.090691 3.71875 13.4375 C 3.5319756 13.749736 3.40625 14.109952 3.40625 14.5 C 3.40625 15.65 4.3500001 16.59375 5.5 16.59375 C 6.6500001 16.59375 7.5937502 15.65 7.59375 14.5 C 7.59375 13.740048 7.1708463 13.082653 6.5625 12.71875 C 7.1648928 12.159367 7.5624999 11.386269 7.5625 10.5 C 7.5625 10.126681 7.497472 9.7684083 7.375 9.4375 C 9.1855058 9.0335119 10.5625 7.4316981 10.5625 5.5 C 10.5625 3.2644 8.7355999 1.4375 6.5 1.4375 z M 4 16.40625 C 3.1168 16.40625 2.4062499 17.116799 2.40625 18 C 2.40625 18.8832 3.1168 19.593751 4 19.59375 C 4.8832 19.59375 5.5937499 18.883199 5.59375 18 C 5.59375 17.1168 4.8832 16.40625 4 16.40625 z" color="#000" display="inline" enable-background="accumulate" opacity="1" overflow="visible" visibility="visible" style="marker:none"/><path id="rect19335" fill="#edd400" fill-opacity="1" stroke="#c4a000" stroke-dashoffset="0" stroke-linecap="round" stroke-linejoin="round" stroke-miterlimit="4" stroke-opacity="1" stroke-width="1" d="M 41,10.5 C 37.399,10.5 35,13.399 35,17 L 36,19 C 35.999998,16.034471 36.953,13.5 40,13.5 C 43.046998,13.5 45.5,15.878221 45.5,18.84375 L 45.5,27.90625 C 45.121824,32.616353 38.114594,33.546278 34.4375,34.25 C 33.989858,34.905095 33.510398,35.478537 33,36 C 37.87327,34.679542 46.983231,34.613084 47.5,28 L 47.5,17 C 47.5,13.399 44.601,10.5 41,10.5 z"/><path id="path19353" fill="none" fill-opacity="1" stroke="url(#linearGradient19742)" stroke-dasharray="none" stroke-dashoffset="0" stroke-linecap="round" stroke-linejoin="round" stroke-miterlimit="4" stroke-opacity="1" stroke-width="1" d="M 36,16 C 39,8 46.160714,12.464286 46.428571,16.125 L 46.339286,28.625 C 46.339286,31.660715 41,34 34,35" opacity=".8"/></g></svg>